<svg data-name="Layer 1" xmlns="http://www.w3.org/2000/svg" viewBox="0 0 1050.31 1053.86"><defs><linearGradient id="a" y1="526.93" x2="1050.31" y2="526.93" gradientUnits="userSpaceOnUse"><stop offset="0" stop-color="#4292c8"/><stop offset="1" stop-color="#fda753"/></linearGradient></defs><path d="M500.31 4.1c-109.4 2.2-199.1 4-199.3 4.2s3.5 70 8.2 155.2 8.4 155 8.2 155.1-71.6.8-158.7 1.4S.11 321.2 0 321.4c-.4.4 11.6 422.9 12.1 423.3.2.2 68-.6 150.7-1.7s151.4-2 152.8-2h2.3l-.7 155.5-.7 155.5h13.3c7.4 0 101.8.5 209.8 1.1s196.5.9 196.6.7.9-71.4 1.5-158.3 1.2-158.1 1.4-158.2 70.2-2.8 155.6-5.8 155.5-5.6 155.6-5.8c.3-.3-24.8-377.4-26.1-393.5l-.7-7.2H744.91l-.6-7.8c-.4-4.2-4.7-73.9-9.6-154.7s-9.2-150.5-9.6-154.8l-.6-7.7-12.7.1c-6.9.1-102.1 1.9-211.5 4z" fill="url(#a)"/></svg>